<?xml version="1.0" encoding="utf-8"?>
<!-- Generator: Adobe Illustrator 17.0.0, SVG Export Plug-In . SVG Version: 6.00 Build 0)  -->
<!DOCTYPE svg PUBLIC "-//W3C//DTD SVG 1.1//EN" "http://www.w3.org/Graphics/SVG/1.1/DTD/svg11.dtd">
<svg version="1.1" id="Layer_2_1_" xmlns="http://www.w3.org/2000/svg" xmlns:xlink="http://www.w3.org/1999/xlink" x="0px" y="0px"
	 width="500px" height="200px" viewBox="0 0 500 200" enable-background="new 0 0 500 200" xml:space="preserve">
<g>
	<path fill="#CED6B4" d="M65.836,149.736c1.967,0.765,4.017,1.22,6.064,1.372c2.049,0.145,4.093-0.04,6.048-0.502
		c3.905-0.952,7.443-3.08,9.975-6.024c1.258-1.475,2.315-3.107,3.07-4.873c0.787-1.801,1.336-3.675,1.639-5.586
		c0.646-3.81,0.315-7.759-0.959-11.363c-1.246-3.613-3.389-6.884-6.176-9.445c-1.392-1.284-2.953-2.373-4.613-3.282
		c-1.698-0.913-3.48-1.643-5.341-2.2c-1.853-0.552-3.761-0.914-5.687-1.08c-1.924-0.185-3.87-0.172-5.797,0.036
		c-3.854,0.423-7.632,1.615-11.056,3.483c-3.417,1.882-6.467,4.456-8.909,7.544c-2.438,3.077-4.224,6.739-5.47,10.567
		c-2.46,7.664-2.359,16.23,0.479,23.917c2.772,7.697,8.204,14.471,15.222,18.798c7.028,4.321,15.37,6.502,23.59,6.422
		c4.117-0.035,8.219-0.655,12.152-1.822c3.936-1.164,7.69-2.888,11.201-5.007c3.503-2.137,6.768-4.672,9.751-7.515
		c2.945-2.875,5.851-5.978,8.763-9.004c5.838-6.075,11.702-12.191,18.242-17.658c1.639-1.361,3.327-2.674,5.091-3.899
		c1.76-1.234,3.63-2.339,5.523-3.328c3.79-1.988,7.733-3.628,11.75-5.026c8.038-2.796,16.389-4.57,24.809-5.542
		c8.424-0.961,16.936-1.085,25.37-0.345c16.87,1.449,33.386,6.594,48.004,14.98l-0.045,0.081
		c-7.407-4.003-15.239-7.194-23.316-9.492c-8.076-2.304-16.388-3.712-24.743-4.314c-16.708-1.16-33.669,0.998-49.395,6.57
		c-3.921,1.41-7.758,3.054-11.407,5.018c-3.667,1.92-6.971,4.374-10.152,7.073c-6.336,5.408-12.097,11.535-17.859,17.659
		l-4.327,4.607c-1.456,1.528-2.886,3.077-4.454,4.566c-3.109,2.967-6.529,5.641-10.259,7.824
		c-7.426,4.419-16.093,6.763-24.706,6.622c-4.306-0.058-8.589-0.719-12.708-1.91c-4.127-1.172-8.094-2.868-11.779-5.102
		c-3.664-2.256-6.972-5.096-9.765-8.383c-2.783-3.298-5.027-7.052-6.662-11.063c-3.255-8.026-3.934-17.167-1.662-25.682
		c0.568-2.126,1.296-4.207,2.202-6.226c0.893-2.02,2.01-3.989,3.309-5.813c2.594-3.664,5.981-6.786,9.866-9.1
		c3.873-2.338,8.255-3.84,12.763-4.411c2.254-0.289,4.54-0.354,6.812-0.177c2.27,0.194,4.52,0.621,6.703,1.27
		c2.174,0.647,4.309,1.521,6.319,2.604c2.041,1.098,3.924,2.491,5.607,4.084c3.377,3.183,5.87,7.263,7.2,11.669
		c1.325,4.407,1.513,9.136,0.514,13.587c-0.512,2.22-1.314,4.371-2.355,6.363c-1.06,2.033-2.414,3.917-4.065,5.487
		c-3.277,3.162-7.538,5.194-11.932,5.697c-4.385,0.557-8.866-0.435-12.481-2.641L65.836,149.736z"/>
	<path fill="#CED6B4" d="M118.366,122.753c2.21-1.225,5.066-1.41,7.491-0.371c1.212,0.511,2.325,1.293,3.209,2.297
		c0.444,0.5,0.833,1.051,1.158,1.639c0.31,0.561,0.585,1.189,0.794,1.818c0.85,2.521,0.739,5.369-0.299,7.869
		c-1.021,2.506-3.03,4.639-5.481,5.842c-2.406,1.217-5.178,1.727-7.89,1.432c-2.711-0.288-5.339-1.385-7.481-3.116
		c-1.071-0.865-2.022-1.888-2.808-3.026c-0.392-0.571-0.746-1.164-1.056-1.786c-0.126-0.245-0.303-0.62-0.428-0.912
		c-0.136-0.31-0.261-0.625-0.379-0.942c-0.948-2.542-1.276-5.321-0.975-8.031c0.295-2.712,1.219-5.357,2.685-7.675
		c1.46-2.321,3.474-4.309,5.828-5.743c4.68-2.785,10.334-3.712,15.647-2.622c1.326,0.267,2.627,0.658,3.883,1.162
		c0.628,0.253,1.247,0.529,1.849,0.84c0.314,0.159,0.574,0.3,0.92,0.498c0.388,0.233,0.698,0.463,0.98,0.682
		c1.119,0.885,2.006,1.763,2.903,2.647c0.887,0.884,1.739,1.769,2.585,2.651c3.359,3.513,6.632,7.1,10.189,9.957
		c0.445,0.347,0.893,0.677,1.343,0.978l1.49,0.959c1,0.632,2.013,1.244,3.044,1.826c2.06,1.167,4.183,2.225,6.353,3.182
		c4.344,1.904,8.9,3.362,13.578,4.303c9.363,1.919,19.146,1.655,28.594-0.18c9.47-1.827,18.643-5.158,27.36-9.386
		c8.736-4.218,17.002-9.397,24.883-15.083l0.424,0.579c-7.826,5.82-16.059,11.126-24.753,15.613
		c-8.694,4.468-17.905,8.064-27.53,10.154c-9.61,2.09-19.637,2.602-29.474,1.111c-4.913-0.748-9.768-2.002-14.443-3.771
		c-2.338-0.881-4.63-1.894-6.863-3.025c-1.117-0.564-2.22-1.158-3.306-1.781l-1.615-0.963c-0.575-0.356-1.122-0.729-1.65-1.113
		c-2.103-1.541-3.958-3.229-5.741-4.96c-1.778-1.732-3.502-3.482-5.177-5.239c-0.84-0.874-1.676-1.743-2.514-2.578
		c-0.832-0.827-1.69-1.655-2.484-2.279c-0.198-0.155-0.381-0.283-0.514-0.365c-0.18-0.106-0.452-0.262-0.68-0.38
		c-0.475-0.256-0.966-0.482-1.464-0.692c-0.996-0.418-2.032-0.746-3.09-0.976c-4.218-0.947-8.824-0.246-12.554,1.898
		c-3.68,2.09-6.298,5.976-6.86,10.239c-0.297,2.124-0.09,4.311,0.574,6.366c0.084,0.256,0.173,0.512,0.273,0.763
		c0.106,0.271,0.179,0.451,0.318,0.754c0.214,0.477,0.467,0.942,0.747,1.386c0.563,0.889,1.256,1.696,2.052,2.393
		c3.172,2.824,8.073,3.639,12.065,1.828c1.974-0.845,3.584-2.408,4.544-4.355c0.952-1.945,1.204-4.258,0.626-6.401
		c-0.144-0.536-0.324-1.041-0.561-1.567c-0.229-0.496-0.512-0.968-0.846-1.405c-0.664-0.877-1.542-1.598-2.54-2.108
		c-1.997-1.028-4.481-1.147-6.636-0.183L118.366,122.753z"/>
	<path fill="#CED6B4" d="M54.56,118.961c2.412-3.668,6.619-6.237,11.161-6.98c4.542-0.779,9.419,0.219,13.269,2.767
		c1.936,1.265,3.605,2.836,4.97,4.692c1.35,1.856,2.28,3.968,2.8,6.145c0.497,2.184,0.603,4.437,0.273,6.627
		c-0.328,2.19-1.117,4.304-2.296,6.166c-1.185,1.852-2.716,3.5-4.608,4.66c-1.875,1.166-4.057,1.801-6.245,1.883
		c-4.376,0.163-8.803-2.04-11.067-5.795c-1.1-1.88-1.565-4.116-1.307-6.267c0.246-2.153,1.21-4.207,2.696-5.771
		c1.462-1.594,3.593-2.541,5.75-2.566c2.156-0.048,4.311,0.825,5.818,2.362l-0.041,0.041c-1.507-1.515-3.646-2.361-5.774-2.298
		c-2.129,0.04-4.217,0.988-5.641,2.564c-1.462,1.546-2.367,3.588-2.571,5.693c-0.216,2.105,0.275,4.268,1.367,6.065
		c1.093,1.796,2.782,3.202,4.651,4.142c1.88,0.945,4.01,1.347,6.093,1.232c2.084-0.131,4.133-0.785,5.868-1.926
		c1.74-1.122,3.162-2.728,4.233-4.5c2.134-3.551,2.754-8.034,1.426-11.928c-0.632-1.945-1.718-3.713-3.09-5.161
		c-1.37-1.438-3.049-2.635-4.783-3.566c-3.51-1.838-7.471-2.654-11.424-2.35c-3.965,0.291-7.858,1.703-11.484,4.109L54.56,118.961z"
		/>
	<path fill="#CED6B4" d="M51.586,182.158c5.244,2.34,10.805,3.938,16.39,4.877c2.798,0.452,5.612,0.749,8.42,0.792
		c2.806,0.06,5.605-0.081,8.357-0.49c2.75-0.408,5.461-1.014,8.078-1.903c2.614-0.893,5.147-2.005,7.562-3.341
		c2.421-1.328,4.715-2.879,6.909-4.585c2.257-1.769,4.487-3.564,6.692-5.405c8.882-7.302,17.052-15.513,25.634-23.377
		c4.312-3.904,8.749-7.747,13.704-10.926c2.476-1.579,5.098-2.976,7.89-3.958c2.783-0.988,5.742-1.543,8.692-1.464v0.717
		c-2.853,0.069-5.656,0.746-8.279,1.829c-2.627,1.085-5.094,2.542-7.433,4.176c-4.676,3.293-8.876,7.255-12.976,11.305
		c-8.166,8.154-16.007,16.747-24.589,24.705c-2.149,1.981-4.349,3.925-6.615,5.779c-2.323,1.923-4.848,3.63-7.517,5.074
		c-5.339,2.9-11.295,4.641-17.295,5.219c-3.004,0.274-6.019,0.286-8.998,0.026c-2.978-0.276-5.923-0.768-8.795-1.507
		c-2.872-0.738-5.68-1.676-8.39-2.828c-2.712-1.148-5.335-2.473-7.798-4.096L51.586,182.158z"/>
	<path fill="#CED6B4" d="M148.691,152.893c7.668,4.856,16.396,7.968,25.367,8.937c8.975,1.007,18.091-0.063,26.734-2.568
		c8.683-2.496,16.727-6.713,24.508-11.184c7.832-4.454,15.266-9.48,23.462-13.759l0.441,0.566
		c-6.198,6.923-13.848,12.257-21.956,16.69c-8.149,4.393-16.93,7.588-25.883,9.827c-8.951,2.23-18.322,3.088-27.481,1.833
		c-9.154-1.224-17.963-4.636-25.581-9.737L148.691,152.893z"/>
	<path fill="#CED6B4" d="M451.303,149.82c-3.615,2.205-8.096,3.198-12.481,2.64c-4.393-0.503-8.655-2.535-11.931-5.697
		c-1.652-1.57-3.005-3.454-4.066-5.487c-1.041-1.992-1.843-4.143-2.354-6.363c-1-4.451-0.812-9.18,0.513-13.587
		c1.33-4.405,3.824-8.485,7.2-11.668c1.683-1.593,3.566-2.986,5.607-4.084c2.01-1.083,4.145-1.956,6.318-2.604
		c2.183-0.65,4.433-1.076,6.703-1.27c2.271-0.177,4.557-0.112,6.812,0.177c4.508,0.572,8.89,2.073,12.763,4.411
		c3.885,2.314,7.272,5.436,9.866,9.101c1.299,1.824,2.416,3.792,3.309,5.813c0.906,2.018,1.634,4.1,2.202,6.226
		c2.272,8.514,1.593,17.656-1.662,25.682c-1.635,4.011-3.879,7.765-6.662,11.063c-2.793,3.287-6.101,6.128-9.765,8.383
		c-3.685,2.234-7.651,3.93-11.778,5.102c-4.119,1.192-8.403,1.852-12.708,1.91c-8.613,0.142-17.28-2.203-24.707-6.622
		c-3.729-2.183-7.149-4.858-10.258-7.824c-1.568-1.49-2.998-3.039-4.454-4.566l-4.327-4.607
		c-5.762-6.124-11.522-12.251-17.859-17.659c-3.18-2.699-6.484-5.154-10.151-7.073c-3.649-1.963-7.487-3.608-11.407-5.018
		c-15.725-5.571-32.687-7.73-49.395-6.57c-8.355,0.602-16.667,2.01-24.743,4.314c-8.077,2.298-15.909,5.489-23.316,9.492
		l-0.045-0.081c14.618-8.385,31.134-13.531,48.004-14.98c8.433-0.74,16.946-0.616,25.369,0.345
		c8.42,0.971,16.771,2.746,24.809,5.542c4.017,1.398,7.96,3.038,11.75,5.026c1.893,0.989,3.763,2.094,5.523,3.328
		c1.764,1.225,3.452,2.538,5.091,3.899c6.54,5.468,12.404,11.584,18.242,17.659c2.913,3.025,5.818,6.129,8.763,9.004
		c2.983,2.844,6.248,5.378,9.751,7.515c3.512,2.119,7.265,3.843,11.201,5.007c3.933,1.167,8.035,1.787,12.152,1.822
		c8.221,0.08,16.563-2.101,23.59-6.422c7.018-4.327,12.45-11.101,15.222-18.798c2.838-7.688,2.94-16.254,0.479-23.917
		c-1.246-3.828-3.032-7.49-5.47-10.568c-2.442-3.088-5.491-5.662-8.908-7.544c-3.425-1.868-7.203-3.06-11.056-3.483
		c-1.928-0.208-3.873-0.221-5.797-0.036c-1.926,0.165-3.834,0.527-5.687,1.08c-1.861,0.557-3.643,1.286-5.341,2.2
		c-1.66,0.91-3.222,1.999-4.614,3.282c-2.787,2.561-4.93,5.832-6.176,9.445c-1.274,3.605-1.605,7.553-0.959,11.363
		c0.303,1.912,0.852,3.785,1.639,5.586c0.755,1.766,1.812,3.398,3.07,4.873c2.533,2.944,6.071,5.072,9.976,6.024
		c1.955,0.462,3.999,0.647,6.048,0.502c2.048-0.152,4.096-0.606,6.063-1.372L451.303,149.82z"/>
	<path fill="#CED6B4" d="M398.432,123.403c-2.155-0.964-4.639-0.845-6.636,0.183c-0.997,0.51-1.875,1.232-2.539,2.108
		c-0.333,0.437-0.617,0.909-0.846,1.405c-0.237,0.526-0.418,1.031-0.562,1.567c-0.578,2.142-0.326,4.456,0.626,6.401
		c0.961,1.946,2.571,3.509,4.544,4.355c3.991,1.811,8.893,0.996,12.065-1.828c0.796-0.696,1.489-1.504,2.052-2.393
		c0.28-0.444,0.533-0.909,0.747-1.386c0.139-0.303,0.213-0.483,0.319-0.754c0.099-0.252,0.188-0.507,0.273-0.763
		c0.663-2.054,0.871-4.242,0.574-6.366c-0.56-4.263-3.179-8.149-6.859-10.239c-3.731-2.144-8.336-2.845-12.555-1.898
		c-1.057,0.23-2.093,0.558-3.09,0.976c-0.497,0.211-0.988,0.437-1.464,0.693c-0.228,0.118-0.5,0.274-0.679,0.38
		c-0.133,0.083-0.317,0.211-0.514,0.365c-0.794,0.624-1.652,1.452-2.484,2.279c-0.838,0.835-1.674,1.704-2.514,2.578
		c-1.675,1.756-3.399,3.507-5.177,5.239c-1.783,1.731-3.638,3.419-5.741,4.96c-0.528,0.384-1.074,0.758-1.65,1.113l-1.615,0.963
		c-1.086,0.623-2.189,1.216-3.306,1.781c-2.233,1.132-4.524,2.144-6.863,3.025c-4.675,1.769-9.529,3.023-14.443,3.771
		c-9.837,1.491-19.864,0.979-29.474-1.112c-9.625-2.09-18.836-5.686-27.53-10.154c-8.694-4.488-16.927-9.794-24.753-15.613
		l0.424-0.579c7.881,5.685,16.147,10.864,24.883,15.083c8.718,4.229,17.89,7.559,27.36,9.386c9.448,1.836,19.231,2.1,28.594,0.18
		c4.678-0.941,9.233-2.398,13.578-4.303c2.17-0.957,4.293-2.015,6.353-3.182c1.031-0.582,2.044-1.194,3.044-1.826l1.49-0.96
		c0.45-0.3,0.899-0.63,1.344-0.977c3.558-2.857,6.83-6.444,10.189-9.957c0.847-0.881,1.699-1.767,2.586-2.65
		c0.897-0.885,1.785-1.762,2.904-2.647c0.282-0.219,0.593-0.449,0.98-0.682c0.347-0.198,0.607-0.339,0.921-0.498
		c0.602-0.311,1.221-0.587,1.849-0.841c1.257-0.504,2.557-0.895,3.884-1.162c5.312-1.09,10.967-0.163,15.647,2.622
		c2.354,1.434,4.367,3.422,5.828,5.743c1.466,2.319,2.39,4.964,2.685,7.676c0.301,2.71-0.027,5.489-0.976,8.031
		c-0.118,0.318-0.242,0.633-0.379,0.942c-0.125,0.292-0.302,0.667-0.427,0.912c-0.31,0.622-0.663,1.216-1.056,1.786
		c-0.785,1.139-1.737,2.161-2.808,3.026c-2.143,1.732-4.77,2.828-7.481,3.116c-2.712,0.295-5.483-0.215-7.89-1.432
		c-2.451-1.204-4.46-3.337-5.481-5.842c-1.038-2.5-1.149-5.349-0.298-7.869c0.208-0.629,0.483-1.257,0.793-1.818
		c0.325-0.588,0.715-1.139,1.158-1.639c0.884-1.004,1.998-1.786,3.209-2.297c2.426-1.038,5.282-0.853,7.492,0.372L398.432,123.403z"
		/>
	<path fill="#CED6B4" d="M462.498,119.003c-3.627-2.406-7.52-3.818-11.484-4.109c-3.954-0.304-7.914,0.511-11.424,2.35
		c-1.734,0.931-3.412,2.128-4.783,3.566c-1.372,1.448-2.458,3.216-3.09,5.161c-1.328,3.894-0.707,8.376,1.426,11.928
		c1.071,1.773,2.493,3.379,4.232,4.501c1.735,1.141,3.784,1.796,5.868,1.926c2.084,0.115,4.213-0.287,6.093-1.232
		c1.869-0.94,3.558-2.345,4.651-4.142c1.092-1.797,1.583-3.961,1.367-6.065c-0.204-2.105-1.11-4.147-2.571-5.693
		c-1.425-1.577-3.512-2.524-5.641-2.564c-2.128-0.062-4.267,0.783-5.774,2.298l-0.042-0.041c1.507-1.537,3.661-2.41,5.818-2.362
		c2.157,0.025,4.288,0.972,5.75,2.566c1.486,1.563,2.45,3.617,2.695,5.771c0.257,2.151-0.207,4.386-1.307,6.267
		c-2.263,3.756-6.69,5.958-11.066,5.795c-2.188-0.082-4.37-0.717-6.245-1.884c-1.892-1.159-3.423-2.808-4.608-4.66
		c-1.179-1.862-1.968-3.976-2.296-6.166c-0.331-2.191-0.225-4.443,0.272-6.627c0.519-2.177,1.449-4.289,2.799-6.145
		c1.365-1.857,3.034-3.427,4.97-4.693c3.85-2.547,8.727-3.545,13.269-2.767c4.541,0.742,8.748,3.312,11.16,6.98L462.498,119.003z"/>
	<path fill="#CED6B4" d="M465.872,182.778c-2.464,1.624-5.086,2.948-7.799,4.097c-2.709,1.152-5.518,2.09-8.39,2.828
		c-2.872,0.739-5.817,1.231-8.795,1.507c-2.979,0.26-5.995,0.248-8.998-0.026c-5.999-0.578-11.955-2.319-17.294-5.219
		c-2.669-1.444-5.194-3.151-7.517-5.074c-2.266-1.854-4.466-3.798-6.615-5.779c-8.582-7.958-16.424-16.55-24.59-24.705
		c-4.101-4.051-8.3-8.012-12.976-11.305c-2.34-1.635-4.806-3.091-7.434-4.176c-2.623-1.083-5.426-1.76-8.279-1.829v-0.717
		c2.95-0.079,5.909,0.476,8.692,1.464c2.791,0.982,5.413,2.379,7.89,3.958c4.954,3.179,9.391,7.021,13.704,10.926
		c8.583,7.864,16.753,16.075,25.634,23.378c2.206,1.841,4.435,3.636,6.692,5.405c2.194,1.706,4.489,3.257,6.91,4.585
		c2.415,1.335,4.948,2.447,7.561,3.341c2.618,0.888,5.329,1.495,8.079,1.903c2.751,0.409,5.551,0.55,8.356,0.49
		c2.809-0.042,5.622-0.339,8.421-0.792c5.585-0.939,11.145-2.538,16.389-4.877L465.872,182.778z"/>
	<path fill="#CED6B4" d="M368.795,153.497c-7.618,5.102-16.426,8.513-25.58,9.737c-9.159,1.256-18.53,0.398-27.481-1.833
		c-8.952-2.239-17.733-5.434-25.883-9.827c-8.107-4.433-15.757-9.767-21.955-16.69l0.441-0.566
		c8.196,4.279,15.63,9.305,23.462,13.759c7.781,4.471,15.825,8.687,24.508,11.184c8.643,2.505,17.759,3.575,26.734,2.568
		c8.97-0.969,17.698-4.081,25.367-8.937L368.795,153.497z"/>
</g>
</svg>
